<svg width="15" height="16" viewBox="0 0 15 16" fill="none" xmlns="http://www.w3.org/2000/svg">
<path d="M0.618985 14.744C0.886275 15.0113 1.25742 15.1529 1.65076 15.1375C2.04411 15.1222 2.42743 14.9512 2.71642 14.6622L11.3461 6.0325L11.1313 11.5418C11.1299 11.9253 11.2778 12.2827 11.5439 12.5389C11.8099 12.795 12.1734 12.9297 12.5577 12.9147C12.942 12.8998 13.3171 12.7362 13.604 12.4585C13.8909 12.1808 14.0671 11.8107 14.0957 11.4262L14.4501 2.33728C14.4652 1.94427 14.3237 1.5735 14.0566 1.30643C13.7895 1.03936 13.4187 0.897814 13.0257 0.912896L3.93685 1.26733C3.73808 1.26807 3.53837 1.30894 3.34963 1.38752C3.16089 1.46609 2.98698 1.58076 2.83829 1.72467C2.6896 1.86859 2.56917 2.03881 2.48418 2.22517C2.3992 2.41153 2.35139 2.61023 2.34363 2.80939C2.33586 3.00856 2.36829 3.20413 2.43898 3.38442C2.50967 3.56471 2.61717 3.72604 2.75507 3.85878C2.89297 3.99152 3.05845 4.09295 3.24163 4.15702C3.42481 4.22109 3.62193 4.24649 3.82125 4.2317L9.33051 4.01686L0.700777 12.6466C0.0993102 13.2481 0.0626681 14.1877 0.618985 14.744Z" fill="white"/>
</svg>
